HIERARCHY
ROOT SpineBase
{
  OFFSET 0.000000 0.000000 0.000000
  CHANNELS 6 Xposition Yposition Zposition Zrotation Xrotation Yrotation
  JOINT SpineMid
  {
    OFFSET 0.000000 10.848770 0.000000
    CHANNELS 3 Zrotation Xrotation Yrotation
    JOINT SpineShoulder
    {
      OFFSET 0.061654 7.997847 -0.171641
      CHANNELS 3 Zrotation Xrotation Yrotation
      JOINT Neck
      {
        OFFSET -0.037151 2.669935 -0.176381
        CHANNELS 3 Zrotation Xrotation Yrotation
        JOINT Head
        {
          OFFSET 1.784318 6.508956 3.180781
          CHANNELS 3 Zrotation Xrotation Yrotation
          End Site
          {
            OFFSET 0 0 0
          }
        }
      }
      JOINT ShoulderLeft
      {
        OFFSET -6.412291 2.878850 2.076997
        CHANNELS 3 Zrotation Xrotation Yrotation
        JOINT ElbowLeft
        {
          OFFSET -0.281039 -14.550786 -2.120237
          CHANNELS 3 Zrotation Xrotation Yrotation
          JOINT WristLeft
          {
            OFFSET -1.921018 -9.893629 -7.476871
            CHANNELS 3 Zrotation Xrotation Yrotation
            JOINT HandLeft
            {
              OFFSET -0.292236 -2.664634 -2.433725
              CHANNELS 3 Zrotation Xrotation Yrotation
              JOINT HandTipLeft
              {
                OFFSET -0.666748 -0.507996 -0.046063
                CHANNELS 3 Zrotation Xrotation Yrotation
                End Site
                {
                  OFFSET 0 0 0
                }
              }
              JOINT ThumbLeft
              {
                OFFSET -1.211767 -0.356315 0.150827
                CHANNELS 3 Zrotation Xrotation Yrotation
                End Site
                {
                  OFFSET 0 0 0
                }
              }
            }
          }
        }
      }
      JOINT ShoulderRight
      {
        OFFSET 6.780343 -1.468988 -6.241887
        CHANNELS 3 Zrotation Xrotation Yrotation
        JOINT ElbowRight
        {
          OFFSET -3.290834 -13.432502 -6.248068
          CHANNELS 3 Zrotation Xrotation Yrotation
          JOINT WristRight
          {
            OFFSET -1.961436 0.555230 -15.035051
            CHANNELS 3 Zrotation Xrotation Yrotation
            JOINT HandRight
            {
              OFFSET -0.698630 2.070261 -10.190473
              CHANNELS 3 Zrotation Xrotation Yrotation
              JOINT HandTipRight
              {
                OFFSET 0.372008 -0.665355 -2.499527
                CHANNELS 3 Zrotation Xrotation Yrotation
                End Site
                {
                  OFFSET 0 0 0
                }
              }
              JOINT ThumbRight
              {
                OFFSET -1.652732 -2.185782 -0.837475
                CHANNELS 3 Zrotation Xrotation Yrotation
                End Site
                {
                  OFFSET 0 0 0
                }
              }
            }
          }
        }
      }
    }
  }
  JOINT HipLeft
  {
    OFFSET -3.201904 0.477492 -0.004793
    CHANNELS 3 Zrotation Xrotation Yrotation
    JOINT KneeLeft
    {
      OFFSET -11.153024 -4.795834 -22.232741
      CHANNELS 3 Zrotation Xrotation Yrotation
      JOINT AnkleLeft
      {
        OFFSET -24.483750 0.345573 -13.424792
        CHANNELS 3 Zrotation Xrotation Yrotation
        JOINT FootLeft
        {
          OFFSET 6.709281 -0.047000 -0.440864
          CHANNELS 3 Zrotation Xrotation Yrotation
          End Site
          {
            OFFSET 0 0 0
          }
        }
      }
    }
  }
  JOINT HipRight
  {
    OFFSET 1.774409 -0.342905 -2.997808
    CHANNELS 3 Zrotation Xrotation Yrotation
    JOINT KneeRight
    {
      OFFSET -11.998882 -1.800616 -21.945359
      CHANNELS 3 Zrotation Xrotation Yrotation
      JOINT AnkleRight
      {
        OFFSET -11.710938 -9.313645 -0.848689
        CHANNELS 3 Zrotation Xrotation Yrotation
        JOINT FootRight
        {
          OFFSET -7.439634 1.967603 -1.982238
          CHANNELS 3 Zrotation Xrotation Yrotation
          End Site
          {
            OFFSET 0 0 0
          }
        }
      }
    }
  }
}
MOTION
Frames: 11
Frame Time: 0.033333
220.554837 12.843174 448.776971 -0.000000 0.000000 31.024909 -0.000000 0.000000 -31.024909 -0.000000 0.000000 0.000000 -0.000000 0.000000 0.000000 0.000000 0.000000 0.000000 -0.000000 0.000000 0.000000 -0.000000 0.000000 0.000000 -0.000000 0.000000 0.000000 -0.000000 0.000000 0.000000 0.000000 0.000000 0.000000 0.000000 0.000000 0.000000 -0.000000 0.000000 0.000000 -0.000000 0.000000 0.000000 -0.000000 0.000000 0.000000 -0.000000 0.000000 0.000000 0.000000 0.000000 0.000000 0.000000 0.000000 0.000000 -0.000000 0.000000 -31.024909 -0.000000 0.000000 0.000000 -0.000000 0.000000 0.000000 0.000000 0.000000 0.000000 -0.000000 0.000000 -31.024909 -0.000000 0.000000 0.000000 -0.000000 0.000000 0.000000 0.000000 0.000000 0.000000
220.136019 12.292295 448.875090 -2.114397 -0.368431 33.701263 0.708640 -1.025730 -33.728051 -0.464940 0.441431 -0.076267 2.253160 1.704238 -0.686386 0.000000 0.000000 0.000000 -4.972095 -0.354676 1.042878 -1.388866 5.356205 4.256692 -0.767407 2.001604 2.169579 24.734117 4.605902 -29.261225 0.000000 0.000000 0.000000 0.000000 0.000000 0.000000 -0.167874 7.120790 -0.695769 2.540762 -11.800036 2.208438 -0.957920 5.695784 -2.369891 1.051069 8.248125 2.392429 0.000000 0.000000 0.000000 0.000000 0.000000 0.000000 1.608695 2.520996 -30.225286 -0.644777 -1.125371 -0.598983 -6.541232 -3.469318 20.299370 0.000000 0.000000 0.000000 2.073062 -0.131287 -34.261634 -0.146584 0.037562 -0.279122 0.473541 -0.704676 0.850710 0.000000 0.000000 0.000000
219.800256 11.847715 448.928666 -3.682038 -0.585608 35.796467 1.200520 -1.868953 -35.856266 -0.808209 0.770737 -0.118752 3.876916 2.926834 -1.223081 0.000000 0.000000 0.000000 -9.699612 -0.740576 1.942648 -3.988771 9.214268 9.565872 -2.101597 3.622898 4.930272 61.778894 -0.813799 -65.706602 0.000000 0.000000 0.000000 0.000000 0.000000 0.000000 -0.420601 14.216396 -1.420039 5.221720 -22.670290 4.879563 -1.636683 10.108722 -4.136679 1.201567 14.346315 4.765220 0.000000 0.000000 0.000000 0.000000 0.000000 0.000000 2.740057 4.506283 -29.384238 -1.151962 -2.055035 -0.575148 -15.550348 -12.986461 52.691243 0.000000 0.000000 0.000000 3.578856 -0.364589 -36.778956 -0.274611 0.059497 -0.498168 0.156955 -0.919549 2.147324 0.000000 0.000000 0.000000
219.547548 11.509434 448.937699 -4.735309 -0.658576 37.376174 1.511194 -2.513811 -37.460212 -1.037716 1.001580 -0.139359 4.886382 3.659976 -1.568177 0.000000 0.000000 0.000000 -13.848131 -1.051746 2.658147 -7.070347 10.889275 14.974863 -3.522351 4.292787 7.572721 82.740209 -10.847002 -80.365337 0.000000 0.000000 0.000000 0.000000 0.000000 0.000000 -0.516195 20.693144 -2.238184 7.882135 -31.874904 7.898069 -2.074541 13.003742 -5.240478 0.743016 18.741870 7.076964 0.000000 0.000000 0.000000 0.000000 0.000000 0.000000 3.414468 5.979817 -28.635786 -1.603132 -2.772817 0.257627 -18.286270 -22.617380 77.800131 0.000000 0.000000 0.000000 4.547548 -0.611471 -38.650037 -0.385857 0.065990 -0.657210 0.211392 -1.196100 2.891947 0.000000 0.000000 0.000000
219.377894 11.277451 448.902191 -5.297044 -0.591562 38.487123 1.667927 -2.951741 -38.578378 -1.159254 1.143188 -0.145093 5.291997 3.901157 -1.697120 0.000000 0.000000 0.000000 -17.216858 -1.208216 3.178156 -9.791449 10.301256 19.446258 -4.644239 3.936903 9.540880 91.884589 -15.302185 -85.360467 0.000000 0.000000 0.000000 0.000000 0.000000 0.000000 -0.260414 25.987328 -3.240623 10.153673 -38.833757 10.911624 -2.286235 14.215719 -5.607205 -0.097112 21.881312 9.230758 0.000000 0.000000 0.000000 0.000000 0.000000 0.000000 3.656896 6.969910 -28.062124 -2.030734 -3.289598 2.062920 -17.475861 -26.881942 90.718057 0.000000 0.000000 0.000000 5.003881 -0.816604 -39.931691 -0.481764 0.057331 -0.756436 0.248246 -1.347897 3.418323 0.000000 0.000000 0.000000
219.291296 11.151768 448.822140 -5.379219 -0.385452 39.159053 1.688718 -3.178007 -39.237592 -1.176279 1.200960 -0.139271 5.102894 3.651737 -1.602974 0.000000 0.000000 0.000000 -19.718658 -1.162968 3.506445 -11.664659 7.781628 22.363041 -5.405353 2.810013 10.704581 93.632191 -15.082008 -88.653408 0.000000 0.000000 0.000000 0.000000 0.000000 0.000000 0.438496 29.704367 -4.486614 11.461431 -43.235488 13.327039 -2.251801 13.624906 -5.151491 -1.157029 24.106750 11.125624 0.000000 0.000000 0.000000 0.000000 0.000000 0.000000 3.484694 7.501854 -27.707558 -2.421932 -3.635041 5.009272 -16.084862 -27.694746 97.435403 0.000000 0.000000 0.000000 4.962356 -0.948620 -40.662523 -0.563347 0.033813 -0.795973 0.267335 -1.373734 3.727192 0.000000 0.000000 0.000000
219.273482 11.012383 448.637647 -4.758685 0.147436 39.036770 1.565489 -3.219390 -39.067391 -1.115891 1.197508 -0.113405 3.372246 2.550476 -0.853240 0.000000 0.000000 0.000000 -22.708034 0.241259 3.998165 -11.640524 1.352773 22.996146 -5.986993 -1.423157 10.379887 85.757135 -6.965173 -91.693525 0.000000 0.000000 0.000000 0.000000 0.000000 0.000000 0.639988 34.678562 -6.107891 12.282527 -46.631036 13.992164 -1.513589 6.671332 -1.885926 -1.348041 30.734939 9.870426 0.000000 0.000000 0.000000 0.000000 0.000000 0.000000 2.699162 7.266283 -27.847605 -3.019568 -3.678484 10.824974 -14.902819 -27.640470 104.945825 0.000000 0.000000 0.000000 4.164594 -0.838618 -40.472542 -1.058901 -0.077218 -0.817818 0.754880 -1.310830 3.812973 0.000000 0.000000 0.000000
219.431683 11.011158 448.455411 -3.571748 0.644655 38.472016 1.335853 -2.992850 -38.455405 -0.954287 1.100591 -0.073385 0.724186 1.261554 0.141489 0.000000 0.000000 0.000000 -20.195054 1.043758 3.436931 -16.359550 -2.767797 23.815683 -5.267976 -6.539188 7.943434 70.956849 4.435488 -84.054605 0.000000 0.000000 0.000000 0.000000 0.000000 0.000000 1.626608 34.586372 -7.596585 10.878962 -46.761141 13.971857 -0.586849 1.694368 0.559883 -2.871526 27.578498 10.534623 0.000000 0.000000 0.000000 0.000000 0.000000 0.000000 1.509410 7.799006 -27.658161 -2.331233 -4.724060 17.153912 -10.747695 -21.568566 108.525115 0.000000 0.000000 0.000000 2.900733 -0.466660 -39.621398 -0.672259 -0.488753 -0.610950 0.294022 -0.839978 3.343385 0.000000 0.000000 0.000000
219.772015 11.166798 448.271291 -1.666960 1.294551 37.877311 0.521516 -2.045063 -37.849169 -0.000000 0.000000 0.000000 -1.601196 -0.035356 0.788802 0.000000 0.000000 0.000000 -21.551481 1.608010 3.432217 -17.947764 -7.343260 24.501583 -6.553469 -2.328007 11.384555 63.025111 3.578281 -74.270639 0.000000 0.000000 0.000000 0.000000 0.000000 0.000000 4.093046 34.106398 -10.353597 8.277232 -46.711156 16.117494 0.649135 -1.869830 2.930955 -6.566421 18.975465 15.876533 0.000000 0.000000 0.000000 0.000000 0.000000 0.000000 -0.545205 6.742553 -27.483762 -1.229372 -4.241678 21.905635 -7.005330 -14.773818 110.305196 0.000000 0.000000 0.000000 0.706932 -0.382062 -36.894883 1.059774 -0.936668 -1.593412 -2.018278 0.194845 1.632865 0.000000 0.000000 0.000000
219.939836 11.766164 447.802168 0.521677 2.628334 37.945347 0.462323 -1.878303 -37.876639 -0.311461 0.652324 0.096845 -4.688976 -2.588177 1.281855 0.000000 0.000000 0.000000 -20.695594 -0.937330 2.077980 -19.298801 -11.464066 24.401485 -3.985186 -5.604172 7.517473 58.456412 12.315275 -73.407163 0.000000 0.000000 0.000000 0.000000 0.000000 0.000000 6.357889 27.840438 -12.000558 3.005738 -42.476888 15.324939 2.739589 -6.970520 7.365232 -9.690679 14.159936 20.584835 0.000000 0.000000 0.000000 0.000000 0.000000 0.000000 -3.656476 6.978084 -25.447247 0.376826 -4.957223 32.256918 2.113423 -4.050295 97.231828 0.000000 0.000000 0.000000 -1.984581 -0.972488 -36.933563 0.433104 -0.648853 -1.051265 -1.652320 0.872043 1.754125 0.000000 0.000000 0.000000
220.038405 11.903204 448.112582 -0.223827 1.518119 35.336607 0.050231 -0.986865 -35.324014 0.233400 0.185126 0.051877 0.286767 -1.723090 -0.265566 0.000000 0.000000 0.000000 -18.081578 0.022934 2.338012 -17.837667 -9.794921 22.770396 -4.029746 -4.815573 7.614211 49.202876 14.621634 -65.614647 0.000000 0.000000 0.000000 0.000000 0.000000 0.000000 7.498788 24.798391 -10.975869 2.033784 -38.889586 17.629484 1.442823 -2.692338 3.429106 -7.942022 12.140821 13.227265 0.000000 0.000000 0.000000 0.000000 0.000000 0.000000 -2.526605 5.948937 -23.807590 2.922264 -4.873444 40.439539 1.578067 -0.767682 85.708612 0.000000 0.000000 0.000000 -0.246630 0.924947 -37.284466 0.724769 -2.774748 2.817148 -0.041028 1.011278 0.057733 0.000000 0.000000 0.000000
